<mxfile host="app.diagrams.net" modified="2021-09-02T06:00:40.553Z" agent="5.0 (Windows NT 10.0; Win64; x64) AppleWebKit/537.36 (KHTML, like Gecko) Chrome/92.0.4515.159 Safari/537.36" etag="FQmN1-yqfFpc8GOFeont" version="15.0.5" type="github">
  <diagram name="Page-1" id="c7558073-3199-34d8-9f00-42111426c3f3">
    <mxGraphModel dx="1240" dy="862" grid="1" gridSize="10" guides="1" tooltips="1" connect="1" arrows="1" fold="1" page="1" pageScale="1" pageWidth="826" pageHeight="1169" background="none" math="0" shadow="0">
      <root>
        <mxCell id="0" />
        <mxCell id="1" parent="0" />
        <mxCell id="RxPv1ioNfz5MUulTQ7ZF-103" style="edgeStyle=orthogonalEdgeStyle;rounded=0;orthogonalLoop=1;jettySize=auto;html=1;exitX=0.5;exitY=1;exitDx=0;exitDy=0;exitPerimeter=0;fillColor=#dae8fc;strokeColor=#6c8ebf;" edge="1" parent="1" source="RxPv1ioNfz5MUulTQ7ZF-97" target="RxPv1ioNfz5MUulTQ7ZF-98">
          <mxGeometry relative="1" as="geometry" />
        </mxCell>
        <mxCell id="RxPv1ioNfz5MUulTQ7ZF-123" style="edgeStyle=orthogonalEdgeStyle;rounded=0;sketch=0;orthogonalLoop=1;jettySize=auto;html=1;exitX=1;exitY=0.5;exitDx=0;exitDy=0;exitPerimeter=0;entryX=1;entryY=0.5;entryDx=0;entryDy=0;startArrow=none;startFill=0;fillColor=#dae8fc;strokeColor=#6c8ebf;" edge="1" parent="1" source="RxPv1ioNfz5MUulTQ7ZF-97" target="RxPv1ioNfz5MUulTQ7ZF-99">
          <mxGeometry relative="1" as="geometry" />
        </mxCell>
        <mxCell id="RxPv1ioNfz5MUulTQ7ZF-97" value="流程发起" style="strokeWidth=2;html=1;shape=mxgraph.flowchart.start_1;whiteSpace=wrap;" vertex="1" parent="1">
          <mxGeometry x="370" y="40" width="100" height="60" as="geometry" />
        </mxCell>
        <mxCell id="RxPv1ioNfz5MUulTQ7ZF-104" style="edgeStyle=orthogonalEdgeStyle;rounded=0;orthogonalLoop=1;jettySize=auto;html=1;exitX=0.5;exitY=1;exitDx=0;exitDy=0;fillColor=#dae8fc;strokeColor=#6c8ebf;" edge="1" parent="1" source="RxPv1ioNfz5MUulTQ7ZF-98" target="RxPv1ioNfz5MUulTQ7ZF-99">
          <mxGeometry relative="1" as="geometry" />
        </mxCell>
        <mxCell id="RxPv1ioNfz5MUulTQ7ZF-98" value="部门复核" style="rounded=1;whiteSpace=wrap;html=1;absoluteArcSize=1;arcSize=14;strokeWidth=2;" vertex="1" parent="1">
          <mxGeometry x="370" y="200" width="100" height="60" as="geometry" />
        </mxCell>
        <mxCell id="RxPv1ioNfz5MUulTQ7ZF-110" style="edgeStyle=orthogonalEdgeStyle;rounded=0;orthogonalLoop=1;jettySize=auto;html=1;exitX=0.5;exitY=1;exitDx=0;exitDy=0;entryX=0.5;entryY=0;entryDx=0;entryDy=0;fillColor=#dae8fc;strokeColor=#6c8ebf;" edge="1" parent="1" source="RxPv1ioNfz5MUulTQ7ZF-99" target="RxPv1ioNfz5MUulTQ7ZF-106">
          <mxGeometry relative="1" as="geometry" />
        </mxCell>
        <mxCell id="RxPv1ioNfz5MUulTQ7ZF-99" value="经办部门审核" style="rounded=1;whiteSpace=wrap;html=1;absoluteArcSize=1;arcSize=14;strokeWidth=2;" vertex="1" parent="1">
          <mxGeometry x="370" y="360" width="100" height="60" as="geometry" />
        </mxCell>
        <mxCell id="RxPv1ioNfz5MUulTQ7ZF-122" style="edgeStyle=orthogonalEdgeStyle;rounded=0;sketch=0;orthogonalLoop=1;jettySize=auto;html=1;exitX=1;exitY=0.5;exitDx=0;exitDy=0;entryX=0;entryY=0.5;entryDx=0;entryDy=0;startArrow=classic;startFill=1;fillColor=#dae8fc;strokeColor=#6c8ebf;" edge="1" parent="1" source="RxPv1ioNfz5MUulTQ7ZF-100" target="RxPv1ioNfz5MUulTQ7ZF-99">
          <mxGeometry relative="1" as="geometry" />
        </mxCell>
        <mxCell id="RxPv1ioNfz5MUulTQ7ZF-100" value="相关部门会签" style="rounded=1;whiteSpace=wrap;html=1;absoluteArcSize=1;arcSize=14;strokeWidth=2;fillColor=#fff2cc;strokeColor=#d6b656;" vertex="1" parent="1">
          <mxGeometry x="140" y="360" width="100" height="60" as="geometry" />
        </mxCell>
        <mxCell id="RxPv1ioNfz5MUulTQ7ZF-113" style="edgeStyle=orthogonalEdgeStyle;rounded=0;sketch=0;orthogonalLoop=1;jettySize=auto;html=1;exitX=0.5;exitY=1;exitDx=0;exitDy=0;entryX=0.5;entryY=0;entryDx=0;entryDy=0;startArrow=none;startFill=0;fillColor=#dae8fc;strokeColor=#6c8ebf;" edge="1" parent="1" source="RxPv1ioNfz5MUulTQ7ZF-106" target="RxPv1ioNfz5MUulTQ7ZF-107">
          <mxGeometry relative="1" as="geometry" />
        </mxCell>
        <mxCell id="RxPv1ioNfz5MUulTQ7ZF-106" value="合规审核" style="rounded=1;whiteSpace=wrap;html=1;absoluteArcSize=1;arcSize=14;strokeWidth=2;" vertex="1" parent="1">
          <mxGeometry x="370" y="524.5" width="100" height="60" as="geometry" />
        </mxCell>
        <mxCell id="RxPv1ioNfz5MUulTQ7ZF-114" style="edgeStyle=orthogonalEdgeStyle;rounded=0;sketch=0;orthogonalLoop=1;jettySize=auto;html=1;exitX=1;exitY=0.5;exitDx=0;exitDy=0;startArrow=classic;startFill=1;fillColor=#dae8fc;strokeColor=#6c8ebf;" edge="1" parent="1" source="RxPv1ioNfz5MUulTQ7ZF-107" target="RxPv1ioNfz5MUulTQ7ZF-108">
          <mxGeometry relative="1" as="geometry" />
        </mxCell>
        <mxCell id="RxPv1ioNfz5MUulTQ7ZF-115" style="edgeStyle=orthogonalEdgeStyle;rounded=0;sketch=0;orthogonalLoop=1;jettySize=auto;html=1;exitX=0;exitY=0.5;exitDx=0;exitDy=0;entryX=1;entryY=0.5;entryDx=0;entryDy=0;startArrow=classic;startFill=1;fillColor=#dae8fc;strokeColor=#6c8ebf;" edge="1" parent="1" source="RxPv1ioNfz5MUulTQ7ZF-107" target="RxPv1ioNfz5MUulTQ7ZF-109">
          <mxGeometry relative="1" as="geometry" />
        </mxCell>
        <mxCell id="RxPv1ioNfz5MUulTQ7ZF-119" style="edgeStyle=orthogonalEdgeStyle;rounded=0;sketch=0;orthogonalLoop=1;jettySize=auto;html=1;exitX=0.5;exitY=1;exitDx=0;exitDy=0;entryX=0.5;entryY=0;entryDx=0;entryDy=0;startArrow=none;startFill=0;" edge="1" parent="1" source="RxPv1ioNfz5MUulTQ7ZF-107" target="RxPv1ioNfz5MUulTQ7ZF-116">
          <mxGeometry relative="1" as="geometry" />
        </mxCell>
        <mxCell id="RxPv1ioNfz5MUulTQ7ZF-107" value="综合管理部核稿" style="rounded=1;whiteSpace=wrap;html=1;absoluteArcSize=1;arcSize=14;strokeWidth=2;" vertex="1" parent="1">
          <mxGeometry x="370" y="680" width="100" height="60" as="geometry" />
        </mxCell>
        <mxCell id="RxPv1ioNfz5MUulTQ7ZF-108" value="相关领导签批" style="rounded=1;whiteSpace=wrap;html=1;absoluteArcSize=1;arcSize=14;strokeWidth=2;fillColor=#d5e8d4;strokeColor=#82b366;" vertex="1" parent="1">
          <mxGeometry x="600" y="680" width="100" height="60" as="geometry" />
        </mxCell>
        <mxCell id="RxPv1ioNfz5MUulTQ7ZF-109" value="分办" style="rounded=1;whiteSpace=wrap;html=1;absoluteArcSize=1;arcSize=14;strokeWidth=2;fillColor=#fff2cc;strokeColor=#d6b656;" vertex="1" parent="1">
          <mxGeometry x="140" y="680" width="100" height="60" as="geometry" />
        </mxCell>
        <mxCell id="RxPv1ioNfz5MUulTQ7ZF-118" style="edgeStyle=orthogonalEdgeStyle;rounded=0;sketch=0;orthogonalLoop=1;jettySize=auto;html=1;exitX=0;exitY=0.5;exitDx=0;exitDy=0;entryX=1;entryY=0.5;entryDx=0;entryDy=0;startArrow=classic;startFill=1;fillColor=#dae8fc;strokeColor=#6c8ebf;" edge="1" parent="1" source="RxPv1ioNfz5MUulTQ7ZF-116" target="RxPv1ioNfz5MUulTQ7ZF-117">
          <mxGeometry relative="1" as="geometry" />
        </mxCell>
        <mxCell id="RxPv1ioNfz5MUulTQ7ZF-121" style="edgeStyle=orthogonalEdgeStyle;rounded=0;sketch=0;orthogonalLoop=1;jettySize=auto;html=1;exitX=0.5;exitY=1;exitDx=0;exitDy=0;entryX=0.5;entryY=0;entryDx=0;entryDy=0;entryPerimeter=0;startArrow=none;startFill=0;" edge="1" parent="1" source="RxPv1ioNfz5MUulTQ7ZF-116" target="RxPv1ioNfz5MUulTQ7ZF-120">
          <mxGeometry relative="1" as="geometry" />
        </mxCell>
        <mxCell id="RxPv1ioNfz5MUulTQ7ZF-116" value="文书处理" style="rounded=1;whiteSpace=wrap;html=1;absoluteArcSize=1;arcSize=14;strokeWidth=2;" vertex="1" parent="1">
          <mxGeometry x="370" y="840" width="100" height="60" as="geometry" />
        </mxCell>
        <mxCell id="RxPv1ioNfz5MUulTQ7ZF-117" value="经办部门校对" style="rounded=1;whiteSpace=wrap;html=1;absoluteArcSize=1;arcSize=14;strokeWidth=2;fillColor=#fff2cc;strokeColor=#d6b656;" vertex="1" parent="1">
          <mxGeometry x="140" y="840" width="100" height="60" as="geometry" />
        </mxCell>
        <mxCell id="RxPv1ioNfz5MUulTQ7ZF-120" value="流程结束" style="strokeWidth=2;html=1;shape=mxgraph.flowchart.terminator;whiteSpace=wrap;" vertex="1" parent="1">
          <mxGeometry x="370" y="1000" width="100" height="60" as="geometry" />
        </mxCell>
      </root>
    </mxGraphModel>
  </diagram>
</mxfile>
